<svg xmlns="http://www.w3.org/2000/svg" width="44" height="32" viewBox="0 0 44 32" fill="none" class="logo-footer">
  <path d="M30.8011 24.4522L29.1478 23.3087C28.5722 22.9092 27.7968 22.9474 27.2686 23.4083C25.6701 24.8038 23.8468 25.8082 21.7484 26.0882C21.3341 26.1365 20.9119 26.1646 20.4813 26.1677C20.0505 26.1642 19.6282 26.1379 19.2139 26.0882C17.1172 25.8082 15.294 24.8038 13.6938 23.4083C13.1655 22.9474 12.3901 22.9092 11.8146 23.3087L10.1612 24.4522C9.68611 24.7819 9.4617 25.3192 9.5014 25.8446C9.46653 26.2985 9.62846 26.766 9.99477 27.0992C12.4992 29.3762 15.0961 30.6558 18.483 31.0157C19.0969 31.0851 19.7321 31.125 20.3971 31.125H20.5621C21.2271 31.125 21.862 31.0851 22.4758 31.0157C25.8631 30.6558 28.4583 29.3762 30.9644 27.0992C31.3308 26.766 31.4923 26.2985 31.4578 25.8446C31.4972 25.3192 31.2745 24.7805 30.7977 24.4522H30.8011Z" fill="#FFD71C"></path>
  <path d="M43.9999 14.3177C43.9999 12.1764 42.9621 10.101 40.0814 6.63049V6.62563C39.9678 6.51145 37.7092 3.88427 35.0808 1.07141C34.0447 -0.0374207 32.0747 0.148252 31.649 0.125C30.8688 0.143394 28.9154 0.640372 28.2818 2.48842C26.9668 6.32196 26.4769 7.90313 25.9901 9.29724C23.8965 15.2606 22.212 16.5402 19.8081 16.5402C17.7556 16.5402 17.673 14.6144 18.1398 12.4082C18.5938 10.2669 20.3657 4.23375 20.9481 1.99457C21.1511 1.20572 20.5621 0.438388 19.7504 0.438388H16.9801C16.4191 0.438388 15.9244 0.822922 15.7825 1.36641C14.7412 5.0809 14.098 7.2951 13.6706 8.93769C11.6264 15.1614 9.81969 16.542 7.36809 16.542C5.31559 16.542 5.23308 14.6162 5.7002 12.41C6.15385 10.2686 7.92567 4.23549 8.5081 1.9963C8.71111 1.20746 8.12212 0.439776 7.31044 0.439776H4.54017C3.97914 0.439776 3.4844 0.82431 3.3425 1.36779C2.06025 5.94368 0.532178 11.5656 0.532178 11.5656C-1.40225 18.4646 2.29157 21.5812 5.91392 21.5812C6.27125 21.5812 7.51862 21.661 9.02286 21.3132C10.6034 20.9474 12.0521 20.0493 13.3578 18.7853C13.5667 18.5746 13.9319 18.5746 14.1408 18.838C14.2023 18.9206 14.7471 19.5537 14.7899 19.5943C15.671 20.5046 16.7091 21.6294 20.1468 21.6294C23.8347 21.6294 25.7961 20.0222 26.7935 18.7992C28.4697 16.7439 30.0999 12.0931 30.4662 10.9825C31.3635 8.59585 31.9922 6.44274 32.3188 5.80312V5.72538C34.1303 7.75251 36.3479 10.2221 37.2552 11.3789C38.6445 13.1492 40.3514 14.9407 38.5292 16.4309C37.1803 17.5338 35.8024 15.7871 35.0283 14.9351C34.5502 14.4079 33.4143 14.276 32.8305 14.6807C32.8305 14.6807 32.1106 15.186 31.687 15.6372C29.9104 17.5293 30.972 18.9769 31.3466 19.325C32.825 20.6958 33.6681 20.9724 35.0701 21.3774C36.6165 21.8241 39.6661 21.5399 40.8951 20.7361C44.0528 18.6725 43.9999 16.1081 43.9999 14.318V14.3177Z" fill="#FFD71C"></path>
</svg>
